<svg xmlns="http://www.w3.org/2000/svg" width="1200" height="320" viewBox="0 0 1200 320">
  <rect width="1200" height="320" fill="#f8fafc"/>
  <text x="24" y="34" font-family="Arial, sans-serif" font-size="22" fill="#0f172a">Boceto 2 - Zona de plataformas</text>

  <!-- Tall columns -->
  <rect x="80" y="120" width="80" height="150" fill="#cbd5e1"/>
  <rect x="250" y="150" width="80" height="120" fill="#cbd5e1"/>
  <rect x="420" y="110" width="80" height="160" fill="#cbd5e1"/>
  <rect x="590" y="145" width="80" height="125" fill="#cbd5e1"/>
  <rect x="760" y="95" width="80" height="175" fill="#cbd5e1"/>
  <rect x="930" y="140" width="80" height="130" fill="#cbd5e1"/>

  <!-- Tops -->
  <line x1="80" y1="120" x2="160" y2="120" stroke="#0f172a" stroke-width="4"/>
  <line x1="250" y1="150" x2="330" y2="150" stroke="#0f172a" stroke-width="4"/>
  <line x1="420" y1="110" x2="500" y2="110" stroke="#0f172a" stroke-width="4"/>
  <line x1="590" y1="145" x2="670" y2="145" stroke="#0f172a" stroke-width="4"/>
  <line x1="760" y1="95" x2="840" y2="95" stroke="#0f172a" stroke-width="4"/>
  <line x1="930" y1="140" x2="1010" y2="140" stroke="#0f172a" stroke-width="4"/>

  <!-- Key / rewards -->
  <circle cx="800" cy="78" r="8" fill="none" stroke="#2563eb" stroke-width="3"/>
  <rect x="440" y="97" width="16" height="12" fill="#a16207"/>

  <!-- Suggested jump flow -->
  <path d="M120 108 Q205 70 290 138" fill="none" stroke="#334155" stroke-width="3"/>
  <path d="M290 138 Q375 85 460 98" fill="none" stroke="#334155" stroke-width="3"/>
  <path d="M460 98 Q545 75 630 133" fill="none" stroke="#334155" stroke-width="3"/>
  <path d="M630 133 Q715 65 800 83" fill="none" stroke="#334155" stroke-width="3"/>
  <path d="M800 83 Q885 90 970 128" fill="none" stroke="#334155" stroke-width="3"/>

  <text x="1020" y="150" font-family="Arial, sans-serif" font-size="13" fill="#334155">seguir a la derecha</text>
</svg>
